<svg width="24" height="24" viewBox="0 0 24 24" fill="none" xmlns="http://www.w3.org/2000/svg">
<path opacity="0.5" fill-rule="evenodd" clip-rule="evenodd" d="M3.54974 3.75144C4.5725 2.65417 6.02973 2.03906 7.753 2.03906H11.492C11.9062 2.03906 12.242 2.37485 12.242 2.78906C12.242 3.20328 11.9062 3.53906 11.492 3.53906H7.753C6.40127 3.53906 5.357 4.01246 4.64701 4.77419C3.93156 5.54176 3.5 6.66275 3.5 8.04806V16.3621C3.5 17.7483 3.92986 18.8692 4.64396 19.6363C5.35243 20.3974 6.39629 20.8711 7.753 20.8711H16.577C17.9343 20.8711 18.9784 20.3973 19.6869 19.6363C20.4011 18.8691 20.831 17.7483 20.831 16.3621V12.3341C20.831 11.9198 21.1668 11.5841 21.581 11.5841C21.9952 11.5841 22.331 11.9198 22.331 12.3341V16.3621C22.331 18.0578 21.8014 19.5665 20.7848 20.6584C19.7626 21.7563 18.3047 22.3711 16.577 22.3711H7.753C6.02571 22.3711 4.56807 21.7563 3.54604 20.6583C2.52964 19.5665 2 18.0578 2 16.3621V8.04806C2 6.35137 2.53244 4.84286 3.54974 3.75144Z" fill="#757575"/>
<path fill-rule="evenodd" clip-rule="evenodd" d="M19.1416 3.97811C18.5034 3.34063 17.4688 3.34063 16.8307 3.97811L9.35796 11.4508C9.10017 11.7086 8.95162 12.0554 8.9424 12.4191L8.86752 15.4305H11.8446C12.2215 15.4305 12.5828 15.2807 12.8493 15.0142L20.3583 7.50517C20.9959 6.86829 20.9966 5.83309 20.3583 5.19483L19.1416 3.97811ZM15.7706 2.91689C16.9944 1.69437 18.9778 1.69437 20.2017 2.91689L21.419 4.13417C22.6427 5.35791 22.6431 7.343 21.4187 8.56611L13.91 16.0748C13.3625 16.6223 12.6198 16.9305 11.8446 16.9305H8.09863C7.89649 16.9305 7.7029 16.8489 7.56175 16.7042C7.4206 16.5595 7.34384 16.3639 7.34886 16.1619L7.44286 12.3819C7.4617 11.6337 7.76715 10.9203 8.2973 10.3902L15.7706 2.91689Z" fill="#757575"/>
<path fill-rule="evenodd" clip-rule="evenodd" d="M14.6347 4.07123C14.9276 3.77834 15.4025 3.77834 15.6954 4.07123L20.2614 8.63723C20.5543 8.93013 20.5543 9.405 20.2614 9.69789C19.9685 9.99079 19.4936 9.99079 19.2007 9.69789L14.6347 5.13189C14.3418 4.839 14.3418 4.36413 14.6347 4.07123Z" fill="#757575"/>
</svg>
