<svg width="24" height="24" viewBox="0 0 24 24" fill="none" xmlns="http://www.w3.org/2000/svg">
<path fill-rule="evenodd" clip-rule="evenodd" d="M3.90749 4.90752C6.11751 2.69749 9.70087 2.69749 11.9109 4.90752C11.941 4.93763 11.9707 4.96802 12 4.99866C12.0292 4.96804 12.0589 4.93766 12.089 4.90752C14.2991 2.69749 17.8824 2.69749 20.0925 4.90752C22.3025 7.11754 22.3025 10.7009 20.0925 12.9109L12.5295 20.4739C12.3888 20.6146 12.198 20.6936 11.9991 20.6936C11.8002 20.6936 11.6094 20.6145 11.4688 20.4738L3.90749 12.9109C1.69752 10.7009 1.69748 7.11752 3.90749 4.90752ZM10.8502 5.96818C9.226 4.34394 6.59239 4.34394 4.96815 5.96818C3.34391 7.59242 3.34391 10.226 4.96815 11.8503L11.9992 18.8828L19.0318 11.8503C20.656 10.226 20.656 7.59242 19.0318 5.96818C17.4076 4.34394 14.7739 4.34394 13.1497 5.96818C12.9501 6.16774 12.7761 6.38315 12.6249 6.61106C12.4859 6.82047 12.2513 6.94635 12 6.94635C11.7486 6.94635 11.514 6.82047 11.3751 6.61106C11.2239 6.38322 11.049 6.16698 10.8502 5.96818Z" fill="#757575"/>
</svg>
