<svg width="24" height="24" viewBox="0 0 24 24" fill="none" xmlns="http://www.w3.org/2000/svg">
<path fill-rule="evenodd" clip-rule="evenodd" d="M11.6148 2.16435C11.8887 1.94522 12.2779 1.94522 12.5519 2.16435L20.8852 8.83102C21.0631 8.97334 21.1667 9.18883 21.1667 9.41667V20.25C21.1667 20.6642 20.8309 21 20.4167 21H14.5833C14.1691 21 13.8333 20.6642 13.8333 20.25V15.1667H10.3333V20.25C10.3333 20.6642 9.99755 21 9.58333 21H3.75C3.33579 21 3 20.6642 3 20.25V9.41667C3 9.18883 3.10357 8.97334 3.28148 8.83102L11.6148 2.16435ZM4.5 9.77713V19.5H8.83333V14.4167C8.83333 14.0025 9.16912 13.6667 9.58333 13.6667H14.5833C14.9975 13.6667 15.3333 14.0025 15.3333 14.4167V19.5H19.6667V9.77713L12.0833 3.71047L4.5 9.77713Z" fill="#757575"/>
</svg>
