<svg width="24" height="24" viewBox="0 0 24 24" fill="none" xmlns="http://www.w3.org/2000/svg">
<path fill-rule="evenodd" clip-rule="evenodd" d="M4.39124 15.3912C5.28204 14.5004 6.49022 14 7.75 14H15.75C17.0098 14 18.218 14.5004 19.1088 15.3912C19.9996 16.282 20.5 17.4902 20.5 18.75V20.75C20.5 21.1642 20.1642 21.5 19.75 21.5C19.3358 21.5 19 21.1642 19 20.75V18.75C19 17.888 18.6576 17.0614 18.0481 16.4519C17.4386 15.8424 16.612 15.5 15.75 15.5H7.75C6.88805 15.5 6.0614 15.8424 5.4519 16.4519C4.84241 17.0614 4.5 17.888 4.5 18.75V20.75C4.5 21.1642 4.16421 21.5 3.75 21.5C3.33579 21.5 3 21.1642 3 20.75V18.75C3 17.4902 3.50044 16.282 4.39124 15.3912Z" fill="#757575"/>
<path fill-rule="evenodd" clip-rule="evenodd" d="M11.75 3.5C9.95507 3.5 8.5 4.95507 8.5 6.75C8.5 8.54493 9.95507 10 11.75 10C13.5449 10 15 8.54493 15 6.75C15 4.95507 13.5449 3.5 11.75 3.5ZM7 6.75C7 4.12665 9.12665 2 11.75 2C14.3734 2 16.5 4.12665 16.5 6.75C16.5 9.37335 14.3734 11.5 11.75 11.5C9.12665 11.5 7 9.37335 7 6.75Z" fill="#757575"/>
</svg>
